# Blender 4.5.2 LTS
# www.blender.org
mtllib Qubit_ball.mtl
o Cube
v -0.200000 -0.500000 0.200000
v -0.200000 -0.200000 0.500000
v -0.500000 -0.200000 0.200000
v -0.200000 0.200000 0.500000
v -0.200000 0.500000 0.200000
v -0.500000 0.200000 0.200000
v -0.200000 -0.500000 -0.200000
v -0.500000 -0.200000 -0.200000
v -0.200000 -0.200000 -0.500000
v -0.200000 0.500000 -0.200000
v -0.200000 0.200000 -0.500000
v -0.500000 0.200000 -0.200000
v 0.200000 -0.500000 0.200000
v 0.500000 -0.200000 0.200000
v 0.200000 -0.200000 0.500000
v 0.200000 0.500000 0.200000
v 0.200000 0.200000 0.500000
v 0.500000 0.200000 0.200000
v 0.200000 -0.500000 -0.200000
v 0.200000 -0.200000 -0.500000
v 0.500000 -0.200000 -0.200000
v 0.200000 0.500000 -0.200000
v 0.500000 0.200000 -0.200000
v 0.200000 0.200000 -0.500000
vn -0.5774 -0.5774 0.5774
vn -0.5774 0.5774 0.5774
vn -0.5774 -0.5774 -0.5774
vn -0.5774 0.5774 -0.5774
vn 0.5774 -0.5774 0.5774
vn 0.5774 0.5774 0.5774
vn 0.5774 -0.5774 -0.5774
vn 0.5774 0.5774 -0.5774
vn -0.7071 -0.7071 -0.0000
vn -0.7071 -0.0000 0.7071
vn -0.7071 0.7071 -0.0000
vn -0.7071 -0.0000 -0.7071
vn -0.0000 -0.7071 -0.7071
vn -0.0000 0.7071 -0.7071
vn 0.7071 -0.0000 -0.7071
vn 0.7071 -0.7071 -0.0000
vn 0.7071 0.7071 -0.0000
vn 0.7071 -0.0000 0.7071
vn -0.0000 -0.7071 0.7071
vn -0.0000 0.7071 0.7071
vn -0.0000 -1.0000 -0.0000
vn -1.0000 -0.0000 -0.0000
vn -0.0000 -0.0000 1.0000
vn -0.0000 1.0000 -0.0000
vn -0.0000 -0.0000 -1.0000
vn 1.0000 -0.0000 -0.0000
vt 0.837891 0.452348
vt 0.688585 0.538550
vt 0.688585 0.366146
vt 0.688585 0.547085
vt 0.837891 0.633287
vt 0.688585 0.719489
vt 0.153574 0.804367
vt 0.004268 0.890569
vt 0.004268 0.718165
vt 0.324653 0.804367
vt 0.175347 0.890569
vt 0.175347 0.718165
vt 0.482495 0.804367
vt 0.333188 0.890569
vt 0.333188 0.718165
vt 0.640336 0.804367
vt 0.491030 0.890569
vt 0.491030 0.718165
vt 0.837891 0.814227
vt 0.688585 0.900429
vt 0.688585 0.728024
vt 0.995732 0.452348
vt 0.846426 0.538550
vt 0.846426 0.366146
vt 0.508970 0.176672
vt 0.346426 0.176672
vt 0.346426 0.004268
vt 0.508970 0.004268
vt 0.166812 0.176672
vt 0.004268 0.176672
vt 0.004268 0.004268
vt 0.166812 0.004268
vt 0.346426 0.185207
vt 0.508970 0.185207
vt 0.508970 0.357611
vt 0.346426 0.357611
vt 0.175347 0.004268
vt 0.337891 0.004268
vt 0.337891 0.176672
vt 0.175347 0.176672
vt 0.166812 0.538550
vt 0.004268 0.538550
vt 0.004268 0.366146
vt 0.166812 0.366146
vt 0.175347 0.366146
vt 0.337891 0.366146
vt 0.337891 0.538550
vt 0.175347 0.538550
vt 0.004268 0.185207
vt 0.166812 0.185207
vt 0.166812 0.357611
vt 0.004268 0.357611
vt 0.508970 0.538550
vt 0.346426 0.538550
vt 0.346426 0.366146
vt 0.508970 0.366146
vt 0.517505 0.004268
vt 0.680049 0.004268
vt 0.680049 0.176672
vt 0.517505 0.176672
vt 0.175347 0.185207
vt 0.337891 0.185207
vt 0.337891 0.357611
vt 0.175347 0.357611
vt 0.680049 0.357611
vt 0.517505 0.357611
vt 0.517505 0.185207
vt 0.680049 0.185207
vt 0.517505 0.366146
vt 0.680049 0.366146
vt 0.680049 0.538550
vt 0.517505 0.538550
vt 0.166812 0.547085
vt 0.166812 0.709629
vt 0.004268 0.709629
vt 0.004268 0.547085
vt 0.337891 0.709629
vt 0.175347 0.709629
vt 0.175347 0.547085
vt 0.337891 0.547085
vt 0.508970 0.709629
vt 0.346426 0.709629
vt 0.346426 0.547085
vt 0.508970 0.547085
vt 0.680049 0.547085
vt 0.680049 0.709629
vt 0.517505 0.709629
vt 0.517505 0.547085
vt 0.851129 0.166812
vt 0.688585 0.166812
vt 0.688585 0.004268
vt 0.851129 0.004268
vt 0.851129 0.347751
vt 0.688585 0.347751
vt 0.688585 0.185207
vt 0.851129 0.185207
s 0
usemtl Material
f 1/1/1 2/2/1 3/3/1
f 4/4/2 5/5/2 6/6/2
f 7/7/3 8/8/3 9/9/3
f 10/10/4 11/11/4 12/12/4
f 13/13/5 14/14/5 15/15/5
f 16/16/6 17/17/6 18/18/6
f 19/19/7 20/20/7 21/21/7
f 22/22/8 23/23/8 24/24/8
f 7/25/9 1/26/9 3/27/9 8/28/9
f 2/29/10 4/30/10 6/31/10 3/32/10
f 5/33/11 10/34/11 12/35/11 6/36/11
f 11/37/12 9/38/12 8/39/12 12/40/12
f 19/41/13 7/42/13 9/43/13 20/44/13
f 10/45/14 22/46/14 24/47/14 11/48/14
f 23/49/15 21/50/15 20/51/15 24/52/15
f 13/53/16 19/54/16 21/55/16 14/56/16
f 22/57/17 16/58/17 18/59/17 23/60/17
f 17/61/18 15/62/18 14/63/18 18/64/18
f 1/65/19 13/66/19 15/67/19 2/68/19
f 16/69/20 5/70/20 4/71/20 17/72/20
f 7/73/21 19/74/21 13/75/21 1/76/21
f 3/77/22 6/78/22 12/79/22 8/80/22
f 15/81/23 17/82/23 4/83/23 2/84/23
f 22/85/24 10/86/24 5/87/24 16/88/24
f 9/89/25 11/90/25 24/91/25 20/92/25
f 21/93/26 23/94/26 18/95/26 14/96/26
